<svg width="177" height="31" viewBox="0 0 177 31" fill="none" xmlns="http://www.w3.org/2000/svg">
<path d="M0.910156 30V1.36719H10.1875C13.7031 1.36719 15.9948 1.51042 17.0625 1.79688C18.7031 2.22656 20.0768 3.16406 21.1836 4.60938C22.2904 6.04167 22.8438 7.89714 22.8438 10.1758C22.8438 11.9336 22.5247 13.4115 21.8867 14.6094C21.2487 15.8073 20.4349 16.7513 19.4453 17.4414C18.4688 18.1185 17.4727 18.5677 16.457 18.7891C15.0768 19.0625 13.0781 19.1992 10.4609 19.1992H6.69141V30H0.910156ZM6.69141 6.21094V14.3359H9.85547C12.1341 14.3359 13.6576 14.1862 14.4258 13.8867C15.194 13.5872 15.793 13.1185 16.2227 12.4805C16.6654 11.8424 16.8867 11.1003 16.8867 10.2539C16.8867 9.21224 16.5807 8.35286 15.9688 7.67578C15.3568 6.9987 14.582 6.57552 13.6445 6.40625C12.9544 6.27604 11.5677 6.21094 9.48438 6.21094H6.69141ZM27.6094 30V1.36719H39.7773C42.8372 1.36719 45.0573 1.6276 46.4375 2.14844C47.8307 2.65625 48.944 3.56771 49.7773 4.88281C50.6107 6.19792 51.0273 7.70182 51.0273 9.39453C51.0273 11.543 50.3958 13.3203 49.1328 14.7266C47.8698 16.1198 45.9818 16.9987 43.4688 17.3633C44.7188 18.0924 45.7474 18.8932 46.5547 19.7656C47.375 20.638 48.4753 22.1875 49.8555 24.4141L53.3516 30H46.4375L42.2578 23.7695C40.7734 21.543 39.7578 20.1432 39.2109 19.5703C38.6641 18.9844 38.0846 18.5872 37.4727 18.3789C36.8607 18.1576 35.8906 18.0469 34.5625 18.0469H33.3906V30H27.6094ZM33.3906 13.4766H37.668C40.4414 13.4766 42.1732 13.3594 42.8633 13.125C43.5534 12.8906 44.0938 12.487 44.4844 11.9141C44.875 11.3411 45.0703 10.625 45.0703 9.76562C45.0703 8.80208 44.8099 8.02734 44.2891 7.44141C43.7812 6.84245 43.0586 6.46484 42.1211 6.30859C41.6523 6.24349 40.2461 6.21094 37.9023 6.21094H33.3906V13.4766ZM55.3242 15.8594C55.3242 12.9427 55.7604 10.4948 56.6328 8.51562C57.2839 7.05729 58.1693 5.7487 59.2891 4.58984C60.4219 3.43099 61.6589 2.57161 63 2.01172C64.7839 1.25651 66.8411 0.878906 69.1719 0.878906C73.3906 0.878906 76.763 2.1875 79.2891 4.80469C81.8281 7.42188 83.0977 11.0612 83.0977 15.7227C83.0977 20.3451 81.8411 23.9648 79.3281 26.582C76.8151 29.1862 73.4557 30.4883 69.25 30.4883C64.9922 30.4883 61.6068 29.1927 59.0938 26.6016C56.5807 23.9974 55.3242 20.4167 55.3242 15.8594ZM61.2812 15.6641C61.2812 18.9062 62.0299 21.3672 63.5273 23.0469C65.0247 24.7135 66.9258 25.5469 69.2305 25.5469C71.5352 25.5469 73.4232 24.7201 74.8945 23.0664C76.3789 21.3997 77.1211 18.9062 77.1211 15.5859C77.1211 12.3047 76.3984 9.85677 74.9531 8.24219C73.5208 6.6276 71.6133 5.82031 69.2305 5.82031C66.8477 5.82031 64.9271 6.64062 63.4688 8.28125C62.0104 9.90885 61.2812 12.3698 61.2812 15.6641ZM91.6914 30L84.8555 1.36719H90.7734L95.0898 21.0352L100.324 1.36719H107.199L112.219 21.3672L116.613 1.36719H122.434L115.48 30H109.348L103.645 8.59375L97.9609 30H91.6914ZM125.402 30V1.36719H146.633V6.21094H131.184V12.5586H145.559V17.3828H131.184V25.1758H147.18V30H125.402ZM152.102 1.36719H163.547C165.812 1.36719 167.499 1.46484 168.605 1.66016C169.725 1.84245 170.721 2.23307 171.594 2.83203C172.479 3.43099 173.215 4.23177 173.801 5.23438C174.387 6.22396 174.68 7.33724 174.68 8.57422C174.68 9.91536 174.315 11.1458 173.586 12.2656C172.87 13.3854 171.893 14.2253 170.656 14.7852C172.401 15.293 173.742 16.1589 174.68 17.3828C175.617 18.6068 176.086 20.0456 176.086 21.6992C176.086 23.0013 175.78 24.2708 175.168 25.5078C174.569 26.7318 173.742 27.7148 172.688 28.457C171.646 29.1862 170.357 29.6354 168.82 29.8047C167.857 29.9089 165.533 29.974 161.848 30H152.102V1.36719ZM157.883 6.13281V12.7539H161.672C163.924 12.7539 165.324 12.7214 165.871 12.6562C166.861 12.5391 167.635 12.2005 168.195 11.6406C168.768 11.0677 169.055 10.319 169.055 9.39453C169.055 8.50911 168.807 7.79297 168.312 7.24609C167.831 6.6862 167.108 6.34766 166.145 6.23047C165.572 6.16536 163.924 6.13281 161.203 6.13281H157.883ZM157.883 17.5195V25.1758H163.234C165.318 25.1758 166.639 25.1172 167.199 25C168.059 24.8438 168.755 24.4661 169.289 23.8672C169.836 23.2552 170.109 22.4414 170.109 21.4258C170.109 20.5664 169.901 19.8372 169.484 19.2383C169.068 18.6393 168.462 18.2031 167.668 17.9297C166.887 17.6562 165.181 17.5195 162.551 17.5195H157.883Z" fill="white"/>
</svg>
